HIERARCHY
ROOT ui
{
	 OFFSET 0 0 0
	 CHANNELS 3 XPosition YPosition Z Position
	 EndSite
	 {
	 OFFSET 0 -1 0
	 }
}
ROOT li
{
	 OFFSET 0 0 0
	 CHANNELS 3 XPosition YPosition Z Position
	 EndSite
	 {
	 OFFSET 0 -1 0
	 }
}
ROOT ul
{
	 OFFSET 0 0 0
	 CHANNELS 3 XPosition YPosition Z Position
	 EndSite
	 {
	 OFFSET 0 -1 0
	 }
}
ROOT ll
{
	 OFFSET 0 0 0
	 CHANNELS 3 XPosition YPosition Z Position
	 EndSite
	 {
	 OFFSET 0 -1 0
	 }
}
ROOT tt
{
	 OFFSET 0 0 0
	 CHANNELS 3 XPosition YPosition Z Position
	 EndSite
	 {
	 OFFSET 0 -1 0
	 }
}
ROOT tb
{
	 OFFSET 0 0 0
	 CHANNELS 3 XPosition YPosition Z Position
	 EndSite
	 {
	 OFFSET 0 -1 0
	 }
}
ROOT td
{
	 OFFSET 0 0 0
	 CHANNELS 3 XPosition YPosition Z Position
	 EndSite
	 {
	 OFFSET 0 -1 0
	 }
}
ROOT v
{
	 OFFSET 0 0 0
	 CHANNELS 3 XPosition YPosition Z Position
	 EndSite
	 {
	 OFFSET 0 -1 0
	 }
}
ROOT bn
{
	 OFFSET 0 0 0
	 CHANNELS 3 XPosition YPosition Z Position
	 EndSite
	 {
	 OFFSET 0 -1 0
	 }
}
MOTION
Frames: 21
Frame Time: 0.002
-0.049963905334472654	-0.003607234001159668	0		0.5866605834960937	-2.61131884765625	0		-0.9983104248046875	-0.017167638778686524	0		-0.6204917602539063	-2.7336796875	0		1.8297664794921875	-1.202372802734375	0		3.077497802734375	-0.12354583740234375	0		4.44055029296875	0.42133258056640627	0		5.92393994140625	0.4331809387207031	0		-0.2056035919189453	5.91571142578125	0		
0.02115437889099121	-2.169560045003891E-4	0		0.5636873168945312	-2.60243359375	0		-1.0610443115234376	-0.0035262188911437987	0		-0.6904667358398437	-2.72394775390625	0		1.767315185546875	-1.1669180908203125	0		3.048834228515625	-0.10572586822509765	0		4.42454443359375	0.4158544921875	0		5.93616015625	0.44114682006835937	0		-0.20615626525878905	5.91628955078125	0		
0.020194515228271485	3.366729915142059E-4	0		0.5806785278320312	-2.594213623046875	0		-0.9998486328125	0.0060822229385375974	0		-0.6536342163085938	-2.72496923828125	0		1.724822998046875	-1.132798828125	0		3.029459228515625	-0.1300802459716797	0		4.3944033203125	0.4035850830078125	0		5.93936083984375	0.44922958374023436	0		-0.07435211944580078	5.93768896484375	0		
0.02414958953857422	-0.004205776214599609	0		0.5515349731445313	-2.5932529296875	0		-0.99169580078125	0.013545145034790039	0		-0.6588563232421875	-2.728315185546875	0		1.6900814208984376	-1.1138232421875	0		3.03143798828125	-0.13280520629882814	0		4.3811591796875	0.385011962890625	0		5.9342998046875	0.44141259765625	0		-0.2072505645751953	5.9174140625	0		
0.018285324096679687	0.0013964289426803588	0		0.5914205322265625	-2.59145166015625	0		-0.994492919921875	0.023173297882080078	0		-0.6399945678710938	-2.7270751953125	0		1.645536865234375	-1.083703369140625	0		2.973256591796875	-0.14556468200683595	0		4.35616064453125	0.38060348510742187	0		5.9333857421875	0.44148944091796877	0		-0.20873753356933594	5.91896826171875	0		
0.022279483795166016	-0.0031886990070343017	0		0.5452003173828125	-2.596249755859375	0		-1.0704027099609374	0.024998708724975584	0		-0.6672447509765626	-2.73309228515625	0		1.62588134765625	-1.0620211181640624	0		2.934511474609375	-0.13366969299316406	0		4.33605517578125	0.3680764770507812	0		5.94148046875	0.4403703308105469	0		-0.2423043212890625	5.91303369140625	0		
0.026320613861083985	-0.00680161714553833	0		0.558024658203125	-2.600056640625	0		-1.00406689453125	0.03843720626831055	0		-0.6554818725585938	-2.73978125	0		1.565512451171875	-1.0246859130859376	0		2.934274658203125	-0.15345558166503906	0		4.30198193359375	0.35574169921875	0		5.94475927734375	0.4482803649902344	0		-0.20665863037109375	5.91592333984375	0		
0.027644643783569334	0.004602933883666992	0		0.5511571044921875	-2.586564208984375	0		-0.9976555786132812	0.05484692001342773	0		-0.661328125	-2.724199951171875	0		1.543070556640625	-0.9940148315429688	0		2.92068896484375	-0.13605349731445313	0		4.30006884765625	0.3508258056640625	0		5.93909033203125	0.4572863464355469	0		-0.20796856689453125	5.91839990234375	0		
0.019692461013793947	-0.0018707890510559083	0		0.57196484375	-2.593575927734375	0		-1.0234992065429687	0.054769939422607425	0		-0.6705455322265625	-2.731593994140625	0		1.47559375	-0.9666171264648438	0		2.864426513671875	-0.1599767303466797	0		4.2679658203125	0.33337030029296877	0		5.9428564453125	0.4310742797851562	0		-0.20924794006347655	5.9198447265625	0		
-0.05317010498046875	-0.0032738840579986574	0		0.5429027709960937	-2.592779296875	0		-1.0439219970703124	0.07857752227783203	0		-0.6027705688476562	-2.740327880859375	0		1.45012646484375	-0.9399603881835937	0		2.847455810546875	-0.167598876953125	0		4.24387255859375	0.31573635864257815	0		5.9292470703125	0.44110855102539065	0		-0.22369706726074218	5.909478515625	0		
0.014999030113220214	-0.004110641002655029	0		0.5677772216796875	-2.59593798828125	0		-1.0355994873046874	0.08686071014404297	0		-0.6866380004882813	-2.72651513671875	0		1.4054268798828125	-0.9270123291015625	0		2.8203837890625	-0.18108941650390625	0		4.21676171875	0.2971119079589844	0		5.92846923828125	0.44087442016601563	0		-0.2097617645263672	5.9205966796875	0		
-0.05974964141845703	0.0014584269523620606	0		0.51887548828125	-2.58487060546875	0		-1.0323680419921875	0.09019137573242188	0		-0.639893310546875	-2.73597314453125	0		1.368926513671875	-0.9022348022460938	0		2.796730712890625	-0.16967131042480468	0		4.184984375	0.2985330505371094	0		5.9376484375	0.4384244689941406	0		-0.21001315307617188	5.920916015625	0		
0.016382518768310546	-6.072390079498291E-4	0		0.57172607421875	-2.588594482421875	0		-1.02997412109375	0.10349706268310546	0		-0.6857659301757812	-2.72187548828125	0		1.3326448974609375	-0.8644910278320312	0		2.78349658203125	-0.1914718475341797	0		4.18084619140625	0.2794420471191406	0		5.94316162109375	0.4560026550292969	0		-0.07888370513916015	5.942927734375	0		
-0.06548869323730469	-9.812480211257935E-4	0		0.5327940673828125	-2.578770263671875	0		-1.0417939453125	0.1050051040649414	0		-0.6220737915039063	-2.733719482421875	0		1.3288885498046874	-0.8543475341796875	0		2.76570166015625	-0.18722171020507813	0		4.1488203125	0.2678053894042969	0		5.93021923828125	0.4478679504394531	0		-0.0791685791015625	5.94315478515625	0		
0.01961261749267578	-0.004299242973327636	0		0.5634217529296875	-2.595197509765625	0		-0.9845387573242188	0.11026499176025391	0		-0.6581181030273437	-2.72987255859375	0		1.2713875732421875	-0.8292989501953125	0		2.718526611328125	-0.20449118041992187	0		4.1476796875	0.24960484313964842	0		5.9252705078125	0.43957186889648436	0		-0.2128363800048828	5.92366796875	0		
-0.062267009735107424	-0.005740421772003174	0		0.5275684814453125	-2.5824970703125	0		-1.0701793212890625	0.12198121643066406	0		-0.624257568359375	-2.733291015625	0		1.2727554931640626	-0.8133119506835937	0		2.678517333984375	-0.21290869140625	0		4.13663623046875	0.23655172729492188	0		5.924453125	0.4381834411621094	0		-0.21314949035644531	5.92382421875	0		
0.013035687446594238	1.9780000671744348E-5	0		0.53946728515625	-2.586673583984375	0		-1.05371533203125	0.1368673095703125	0		-0.6792376708984375	-2.72918798828125	0		1.286175537109375	-0.7965728759765625	0		2.706244873046875	-0.238547607421875	0		4.12763720703125	0.22443952941894532	0		5.9416611328125	0.43645831298828125	0		-0.19629702758789064	5.93263818359375	0		
0.02738519477844238	0.0058102660179138186	0		0.5425733032226563	-2.58273046875	0		-0.9672774047851562	0.14646697998046876	0		-0.606260498046875	-2.732385986328125	0		1.2799425048828126	-0.7635175170898437	0		2.66488525390625	-0.21498529052734375	0		4.08471240234375	0.21390968322753906	0		5.9361025390625	0.44512228393554687	0		-0.08134044647216797	5.94467138671875	0		
0.01160461711883545	9.729699790477753E-5	0		0.5179347534179688	-2.569325439453125	0		-0.9929744262695313	0.14500741577148438	0		-0.6899189453125	-2.7188427734375	0		1.2499957275390625	-0.7190670166015625	0		2.628645751953125	-0.24553965759277344	0		4.1116025390625	0.1881241455078125	0		5.92647900390625	0.44585003662109374	0		-0.08252714538574218	5.94671630859375	0		
0.011026627540588379	8.122900128364563E-5	0		0.524974853515625	-2.58051904296875	0		-1.0094321899414063	0.15134835815429687	0		-0.621845703125	-2.728040771484375	0		1.25241943359375	-0.7162258911132813	0		2.62396142578125	-0.2506708068847656	0		4.071954833984375	0.18351251220703124	0		5.92593310546875	0.44541043090820315	0		-0.2302457733154297	5.91633984375	0		
0.012420063972473144	-0.008004912376403809	0		0.49636151123046873	-2.579102783203125	0		-1.0788018798828125	0.15660276794433595	0		-0.682517578125	-2.728972900390625	0		1.2580333251953124	-0.709469482421875	0		2.6381923828125	-0.2671641845703125	0		4.057165771484375	0.16444287109375	0		5.92550048828125	0.444962158203125	0		-0.21511666870117188	5.92703369140625	0		
